<svg width="1024" height="1024" viewBox="0 0 1024 1024" xmlns="http://www.w3.org/2000/svg"><defs><path id="a" d="M202.424 753.893H985.86v99.571H202.424z"/><path id="b" d="M202.424 753.893h873.449v103.858H202.424z"/></defs><g style="display:inline"><path style="display:inline;fill:#e5dcb9" d="M0 512V0h1024v1024H0Z"/><path style="display:inline;fill:#f0b009" d="M0 512V0h1024v1024H0Zm550 416.2c23.973-3.583 46.033-8.553 58.5-13.18 1.1-.409 3.8-1.285 6-1.948 4.096-1.233 7.66-2.624 10.736-4.189.955-.486 2.198-.883 2.761-.883 7.72 0 48.675-23.75 69.44-40.27 10.82-8.607 10.922-8.636 21.063-5.826 2.2.61 6.925 1.56 10.5 2.113 6.192.957 12.94 2.153 19.5 3.455 1.65.327 5.475 1.067 8.5 1.643s7.3 1.43 9.5 1.9c2.2.468 6.925 1.361 10.5 1.985 6.125 1.068 8.492 1.554 19.5 4 4.6 1.022 8.791 1.92 18.5 3.962 6.513 1.37 18.727 4.229 30.424 7.121 26.978 6.672 51.103-3.02 61.578-24.74l3.216-6.669-.592-13.587c-.325-7.473-1.02-16.962-1.544-21.087s-1.433-11.55-2.02-16.5a1658 1658 0 0 0-4.03-31.5c-1.974-14.275-3.858-29.331-6.006-48a3284 3284 0 0 0-2.011-17c-.568-4.675-1.448-14.35-1.956-21.5-1.436-20.208-4.538-27.547-14.14-33.455-6.015-3.701-6.162-5.37-.718-8.147 16.615-8.477 48.323-39.2 64.707-62.7 12.804-18.365 4.071-41.438-17.408-45.994-8.6-1.824-21.808-4.409-26.5-5.185-2.475-.41-10.67-3.732-18.213-7.382-7.542-3.65-14.194-6.637-14.783-6.637s-3.385-1.173-6.214-2.606c-4.76-2.412-10.126-4.24-17.106-5.826-5.015-1.139-2.57-3.467 11.197-10.66 7.36-3.846 15.316-8.323 17.68-9.95 2.365-1.627 4.627-2.958 5.027-2.958 1.77 0 11.885-8.79 14.037-12.198 12.012-19.028-33.62-73.656-74.125-88.74l-7-2.606-6.5-12.323c-15.09-28.606-35.393-49.15-61.799-62.53-6.636-3.364-7.025-4.873-2.843-11.037 5.498-8.105 11.87-22.286 15.309-34.066 2.809-9.623 3.151-11.048 4.21-17.5 6.683-40.717 2.9-53-16.32-53-6.93 0-8.074-1.31-6.228-7.135 8.549-26.983 6.958-41.971-5.69-53.63-8.025-7.397-19.784-9.383-33.34-5.63-3.19.883-7.599 1.934-9.799 2.336s-6.36 1.584-9.246 2.627l-5.245 1.898-5.882-3.233c-6.284-3.455-16.436-4.45-23.556-2.31-1.689.508-5.546 1.469-8.571 2.135-10.966 2.415-28.454 9.005-39.679 14.952-13.64 7.226-13.396 7.259-20.858-2.798-7.548-10.173-27.882-30.158-38.511-37.85-19.479-14.097-25.805-13.186-52.327 7.538-7.104 5.552-22.068 21.998-28.465 31.285-6.132 8.9-5.895 8.885-20.29 1.372-11.454-5.98-30.888-13.052-45.134-16.428-9.804-2.323-21.424-1.496-27.548 1.96-5.863 3.31-5.694 3.31-16.688-.014-45.534-13.763-65.51 5.273-53.204 50.7 3.004 11.086 2.5 12.225-5.4 12.225-9.205 0-14.502 3.793-17.455 12.5-2.036 6-1.729 11.8 2.118 40 1.831 13.421 9.141 33.995 17.471 49.172 4.973 9.062 4.954 9.552-.523 13-35.213 22.166-47.27 34.345-62.28 62.906-5.652 10.753-5.833 10.967-11.734 13.817-34.374 16.606-62.458 41.864-75.758 68.136-9.412 18.591-.982 29.085 39.015 48.572 6.738 3.282 12.25 6.566 12.25 7.297 0 1.197-7.084 4.6-9.577 4.6-1.398 0-21.562 8.124-35.423 14.271-6.325 2.806-13.75 5.482-16.5 5.947s-7.25 1.283-10 1.816-7.025 1.241-9.5 1.573c-23.528 3.149-35.487 21.83-26.64 41.614 8.4 18.781 43.998 54.621 68.39 68.853 4.512 2.633 4.109 4.132-2.451 9.118-9.26 7.038-11.64 13.202-12.675 32.808-.592 11.23-1.47 19.803-3.585 35-1.97 14.158-4.735 36.02-6.008 47.5-.873 7.883-2.1 17.78-4.03 32.5-6.742 51.44-6.234 58.198 5.319 70.731 13.29 14.418 33.34 19.779 54.18 14.486 4.71-1.196 13.369-3.118 19-4.217 2.2-.43 6.475-1.33 9.5-2 11.698-2.593 28.539-5.971 40-8.024a433 433 0 0 0 10.25-1.98l9.5-1.992a499 499 0 0 1 10.75-2.085c3.3-.6 8.25-1.517 11-2.038s7.475-1.348 10.5-1.838 8.15-1.61 11.389-2.49c7.533-2.047 7.478-2.069 21.916 8.779 12.336 9.268 16.347 11.916 31.695 20.927 17.508 10.28 40.252 19.864 61 25.706 2.475.697 5.625 1.613 7 2.035 2.745.843 8.923 2.487 14.75 3.925 6.868 1.695 17.54 3.503 35.25 5.972 8.13 1.133 58.24.612 67-.697m-62-13.828c-62.781-7.446-112.12-27.458-155.766-63.178-3.155-2.582-6.483-5.279-7.396-5.993-1.388-1.085-5.01-.64-22 2.705-11.186 2.202-26.638 5.17-34.338 6.597-26.824 4.967-50.178 9.721-77 15.675-35.96 7.982-40.752 7.483-54.169-5.643-10.779-10.545-10.68-6.379-1.821-77.055 8.787-70.105 12.481-101.928 12.512-107.776.073-13.903 8.942-19.704 30.127-19.704 9.633 0 12.842-.313 12.815-1.25-.052-1.83-12.086-11.084-24.048-18.492-29.976-18.566-44.345-31.069-64.085-55.758-11.82-14.784-13.25-18.504-9.964-25.931 2.358-5.331 5.398-7.066 13.866-7.912 13.74-1.373 30.28-6.277 48.767-14.459 42.754-18.923 63.596-25.975 91.5-30.958 4.08-.728 4.5-1.067 4.5-3.623v-2.82l-14.5-.313c-32.262-.698-70.67-14.426-87.529-31.286-11.258-11.258 35.564-58.284 71.943-72.258 7.841-3.011 6.9-1.807 14.965-19.175 11.933-25.699 39.212-50.785 71.098-65.383 6.602-3.023 6.61-3.067 1.466-9.573-13.22-16.724-23.135-40.185-26.334-62.309-4.773-33.01-4.456-33.674 15.955-33.442 16.246.184 15.363.852 11.502-8.71-6.285-15.566-10.944-39.372-9.07-46.336 3.83-14.219 12.117-15.081 46.758-4.866l10.255 3.024 3.245-2.736c13.933-11.749 55.617.136 85.521 24.382 2.352 1.907 4.425 3.29 4.608 3.075s2.296-4.2 4.697-8.855C468.422 140.108 500.687 109 513.164 109c11.54 0 44.495 32.245 58.034 56.782l4.018 7.282 4.142-3.357c27.13-21.99 68.495-35.042 82.142-25.92l6 4.012 15.5-4.457c42.427-12.199 52.14 3.56 32.407 52.583-4.134 10.27-5.193 9.408 11.327 9.22 19.443-.223 19.765.155 17.749 20.895-3.007 30.94-12.526 55.978-28.566 75.14-5.14 6.14-5.629 5.386 8.306 12.82 36.933 19.703 59.834 43.74 69.195 72.63 1.523 4.7 2.058 5.278 6.372 6.901 39.922 15.023 87.88 62.467 74.96 74.156-20.23 18.303-55.002 30.504-87.544 30.719-13.841.091-14.31.163-14.844 2.287-.837 3.334-.049 3.863 7.843 5.269 29.417 5.242 50.478 12.402 94.22 32.032 14.547 6.527 30.485 11.137 43.075 12.457 10.994 1.152 16.035 5.644 15.796 14.073-.388 13.697-36.665 50.99-70.796 72.78-31.68 20.224-32.913 22.423-12.832 22.876 21.658.49 25.918 4.265 27.413 24.295.468 6.268 2.66 25.937 4.87 43.71 16.767 134.79 16.293 125.202 6.706 135.671-11.155 12.184-20.67 13.849-46.182 8.08C806.039 863.695 708.239 844 703.758 844c-.321 0-5.414 3.857-11.318 8.57-42.01 33.546-82.038 50.643-140.44 59.985-10.056 1.608-55 2.884-64 1.817M278.457 505.25c4.526-37.826 11.74-62.453 16.81-57.383 1.923 1.923 2.599 1.363 7.385-6.117 5.522-8.63 14.798-17.997 23.803-24.038 3.596-2.412 6.24-4.684 5.875-5.049-2.48-2.48-13.583 1.416-22.33 7.837-5.428 3.984-5.987 3.818-5.265-1.563.736-5.482-.972-5.124-7.448 1.562C281.821 436.467 273 459.629 273 484.274c0 20.072 3.813 34.725 5.457 20.976m472.58-7.15c3.622-28.43-4.625-57.304-21.31-74.594-8.349-8.652-9.727-9.15-9.727-3.506 0 4.9.133 4.9-6.493.005-5.538-4.091-14.087-8.005-17.485-8.005-3.24 0-3.24 1.836 0 3.511 4.734 2.448 22.299 20.267 26.47 26.853 3.568 5.631 3.852 5.842 7.16 5.305 6.282-1.02 8.395 4.608 13.882 36.973 5.015 29.578 5.367 30.21 7.502 13.459m19.87-86.35c-11.187-28.446-40.276-47.503-75.944-49.752-14.706-.928-17.477-.582-29.102 3.628-14.41 5.219-14.434 5.205 15.139 8.39 43.997 4.738 68.317 15.16 85.043 36.444 6.215 7.909 7.612 8.28 4.863 1.29M276.52 394.874c21.504-14.253 37.346-18.42 77.755-20.453 15.083-.76 16.685-1.381 11.01-4.275-37.776-19.263-88.556-2.51-108.725 35.873-5.468 10.403-4.403 10.792 4.71 1.717 4.549-4.53 11.411-10.318 15.25-12.862M403 315.089c0-11.683 7.067-19.682 13.964-15.804 12.594 7.079 24.351-4.054 17.006-16.103-8.816-14.46-38.407-4.702-45.808 15.106-4.905 13.128-2.766 19.831 6.838 21.425 7.435 1.234 8 .907 8-4.624m235.881 2.458c11.126-11.128-13.83-44.87-29.971-40.523-15.03 4.047-11.144 23.138 5.065 24.882 6.276.675 10.025 5.589 10.025 13.14 0 5.415 10.246 7.137 14.881 2.5m-291.906-10.294c14.911-38.42 39.578-62.62 69.615-68.299 11.207-2.119 24.276 3.038 40.792 16.094 9.964 7.877 10.804 8.033 7.6 1.413-18.345-37.89-77.736-29.32-107.695 15.54-8.514 12.748-19.28 37.972-17.826 41.762 1.375 3.584 4.72.685 7.513-6.509m339.346 6.352c1.452-3.782-8.915-27.62-17.965-41.311-29.28-44.293-83.66-53.663-106.483-18.348-5.78 8.944-3.497 9.22 6.323.765 35.972-30.97 82.08-12.163 106.373 43.39 2.501 5.72 5.189 11.862 5.973 13.649 1.488 3.393 4.783 4.45 5.78 1.855M474 234.544c24.107-6.859 55.992-6.397 80.623 1.168 5.547 1.704 10.688-.165 10.107-3.673-1.726-10.41-93.82-11.348-104.108-1.061-1.545 1.545 3.38 6.286 5.869 5.647 1.105-.284 4.484-1.22 7.509-2.081m123.942-28.917c8.54-8.282 23.52-17.212 38.801-23.132 5.022-1.945 6.96-3.148 6.32-3.92-.51-.613-1.069-3.13-1.244-5.595-1.035-14.546-42.735 9.963-56.03 32.93-5.604 9.684 2.058 9.505 12.153-.283M443 211.952c0-1.523-6.63-11.689-11.196-17.166-14.376-17.245-47.78-33.338-47.818-23.036-.008 2.063-.265 4.686-.572 5.83-.497 1.851.834 2.664 12.084 7.38 14.283 5.987 24.89 12.563 31.502 19.532 5.888 6.205 16 10.92 16 7.46m34.75-9.676c.688-.912 1.25-2.303 1.25-3.091 0-2.226 6.971-17.306 9.678-20.935 2.658-3.564 4.322-4.172 4.322-1.579 0 5.32 5.685 6.68 9.411 2.252 4.437-5.272.404-12.997-4.953-9.487-3.576 2.342-3.066.142 1.162-5.018 3.312-4.04 6.38-5.736 6.38-3.525 0 .491.786 1.195 1.747 1.563 2.706 1.039 6.606-3.928 5.18-6.594-.595-1.11-.835-2.658-.535-3.44 2.835-7.39 30.56 27.837 35.684 45.34 1.5 5.125 2.277 5.845 7.327 6.789l3.903.729-.657-3.287c-3.472-17.357-20.53-42.834-38.934-58.15-7.102-5.91-5.795-6.041-14.318 1.43-17.928 15.716-32.687 38.762-35.944 56.127l-.732 3.9 4.39-.683c2.414-.376 4.952-1.43 5.639-2.341"/><path style="display:inline;fill:#0891d3" d="M0 512V0h1024v1024H0Zm550 416.2c23.973-3.583 46.033-8.553 58.5-13.18 1.1-.409 3.8-1.285 6-1.948 4.096-1.233 7.66-2.624 10.736-4.189.955-.486 2.198-.883 2.761-.883 7.72 0 48.675-23.75 69.44-40.27 10.82-8.607 10.922-8.636 21.063-5.826 2.2.61 6.925 1.56 10.5 2.113 6.192.957 12.94 2.153 19.5 3.455 1.65.327 5.475 1.067 8.5 1.643s7.3 1.43 9.5 1.9c2.2.468 6.925 1.361 10.5 1.985 6.125 1.068 8.492 1.554 19.5 4 4.6 1.022 8.791 1.92 18.5 3.962 6.513 1.37 18.727 4.229 30.424 7.121 26.978 6.672 51.103-3.02 61.578-24.74l3.216-6.669-.592-13.587c-.325-7.473-1.02-16.962-1.544-21.087s-1.433-11.55-2.02-16.5a1658 1658 0 0 0-4.03-31.5c-1.974-14.275-3.858-29.331-6.006-48a3284 3284 0 0 0-2.011-17c-.568-4.675-1.448-14.35-1.956-21.5-1.436-20.208-4.538-27.547-14.14-33.455-6.015-3.701-6.162-5.37-.718-8.147 16.615-8.477 48.323-39.2 64.707-62.7 12.804-18.365 4.071-41.438-17.408-45.994-8.6-1.824-21.808-4.409-26.5-5.185-2.475-.41-10.67-3.732-18.213-7.382-7.542-3.65-14.194-6.637-14.783-6.637s-3.385-1.173-6.214-2.606c-4.76-2.412-10.126-4.24-17.106-5.826-5.015-1.139-2.57-3.467 11.197-10.66 7.36-3.846 15.316-8.323 17.68-9.95 2.365-1.627 4.627-2.958 5.027-2.958 1.77 0 11.885-8.79 14.037-12.198 12.012-19.028-33.62-73.656-74.125-88.74l-7-2.606-6.5-12.323c-15.09-28.606-35.393-49.15-61.799-62.53-6.636-3.364-7.025-4.873-2.843-11.037 5.498-8.105 11.87-22.286 15.309-34.066 2.809-9.623 3.151-11.048 4.21-17.5 6.683-40.717 2.9-53-16.32-53-6.93 0-8.074-1.31-6.228-7.135 8.549-26.983 6.958-41.971-5.69-53.63-8.025-7.397-19.784-9.383-33.34-5.63-3.19.883-7.599 1.934-9.799 2.336s-6.36 1.584-9.246 2.627l-5.245 1.898-5.882-3.233c-6.284-3.455-16.436-4.45-23.556-2.31-1.689.508-5.546 1.469-8.571 2.135-10.966 2.415-28.454 9.005-39.679 14.952-13.64 7.226-13.396 7.259-20.858-2.798-7.548-10.173-27.882-30.158-38.511-37.85-19.479-14.097-25.805-13.186-52.327 7.538-7.104 5.552-22.068 21.998-28.465 31.285-6.132 8.9-5.895 8.885-20.29 1.372-11.454-5.98-30.888-13.052-45.134-16.428-9.804-2.323-21.424-1.496-27.548 1.96-5.863 3.31-5.694 3.31-16.688-.014-45.534-13.763-65.51 5.273-53.204 50.7 3.004 11.086 2.5 12.225-5.4 12.225-9.205 0-14.502 3.793-17.455 12.5-2.036 6-1.729 11.8 2.118 40 1.831 13.421 9.141 33.995 17.471 49.172 4.973 9.062 4.954 9.552-.523 13-35.213 22.166-47.27 34.345-62.28 62.906-5.652 10.753-5.833 10.967-11.734 13.817-34.374 16.606-62.458 41.864-75.758 68.136-9.412 18.591-.982 29.085 39.015 48.572 6.738 3.282 12.25 6.566 12.25 7.297 0 1.197-7.084 4.6-9.577 4.6-1.398 0-21.562 8.124-35.423 14.271-6.325 2.806-13.75 5.482-16.5 5.947s-7.25 1.283-10 1.816-7.025 1.241-9.5 1.573c-23.528 3.149-35.487 21.83-26.64 41.614 8.4 18.781 43.998 54.621 68.39 68.853 4.512 2.633 4.109 4.132-2.451 9.118-9.26 7.038-11.64 13.202-12.675 32.808-.592 11.23-1.47 19.803-3.585 35-1.97 14.158-4.735 36.02-6.008 47.5-.873 7.883-2.1 17.78-4.03 32.5-6.742 51.44-6.234 58.198 5.319 70.731 13.29 14.418 33.34 19.779 54.18 14.486 4.71-1.196 13.369-3.118 19-4.217 2.2-.43 6.475-1.33 9.5-2 11.698-2.593 28.539-5.971 40-8.024a433 433 0 0 0 10.25-1.98l9.5-1.992a499 499 0 0 1 10.75-2.085c3.3-.6 8.25-1.517 11-2.038s7.475-1.348 10.5-1.838 8.15-1.61 11.389-2.49c7.533-2.047 7.478-2.069 21.916 8.779 12.336 9.268 16.347 11.916 31.695 20.927 17.508 10.28 40.252 19.864 61 25.706 2.475.697 5.625 1.613 7 2.035 2.745.843 8.923 2.487 14.75 3.925 6.868 1.695 17.54 3.503 35.25 5.972 8.13 1.133 58.24.612 67-.697m-62-13.828c-62.781-7.446-112.12-27.458-155.766-63.178-3.155-2.582-6.483-5.279-7.396-5.993-1.388-1.085-5.01-.64-22 2.705-11.186 2.202-26.638 5.17-34.338 6.597-26.824 4.967-50.178 9.721-77 15.675-35.96 7.982-40.752 7.483-54.169-5.643-10.779-10.545-10.68-6.379-1.821-77.055 8.787-70.105 12.481-101.928 12.512-107.776.073-13.903 8.942-19.704 30.127-19.704 9.633 0 12.842-.313 12.815-1.25-.052-1.83-12.086-11.084-24.048-18.492-29.976-18.566-44.345-31.069-64.085-55.758-11.82-14.784-13.25-18.504-9.964-25.931 2.358-5.331 5.398-7.066 13.866-7.912 13.74-1.373 30.28-6.277 48.767-14.459 42.754-18.923 63.596-25.975 91.5-30.958 4.08-.728 4.5-1.067 4.5-3.623v-2.82l-14.5-.313c-32.262-.698-70.67-14.426-87.529-31.286-11.258-11.258 35.564-58.284 71.943-72.258 7.841-3.011 6.9-1.807 14.965-19.175 11.933-25.699 39.212-50.785 71.098-65.383 6.602-3.023 6.61-3.067 1.466-9.573-13.22-16.724-23.135-40.185-26.334-62.309-4.773-33.01-4.456-33.674 15.955-33.442 16.246.184 15.363.852 11.502-8.71-6.285-15.566-10.944-39.372-9.07-46.336 3.83-14.219 12.117-15.081 46.758-4.866l10.255 3.024 3.245-2.736c13.933-11.749 55.617.136 85.521 24.382 2.352 1.907 4.425 3.29 4.608 3.075s2.296-4.2 4.697-8.855C468.422 140.108 500.687 109 513.164 109c11.54 0 44.495 32.245 58.034 56.782l4.018 7.282 4.142-3.357c27.13-21.99 68.495-35.042 82.142-25.92l6 4.012 15.5-4.457c42.427-12.199 52.14 3.56 32.407 52.583-4.134 10.27-5.193 9.408 11.327 9.22 19.443-.223 19.765.155 17.749 20.895-3.007 30.94-12.526 55.978-28.566 75.14-5.14 6.14-5.629 5.386 8.306 12.82 36.933 19.703 59.834 43.74 69.195 72.63 1.523 4.7 2.058 5.278 6.372 6.901 39.922 15.023 87.88 62.467 74.96 74.156-20.23 18.303-55.002 30.504-87.544 30.719-13.841.091-14.31.163-14.844 2.287-.837 3.334-.049 3.863 7.843 5.269 29.417 5.242 50.478 12.402 94.22 32.032 14.547 6.527 30.485 11.137 43.075 12.457 10.994 1.152 16.035 5.644 15.796 14.073-.388 13.697-36.665 50.99-70.796 72.78-31.68 20.224-32.913 22.423-12.832 22.876 21.658.49 25.918 4.265 27.413 24.295.468 6.268 2.66 25.937 4.87 43.71 16.767 134.79 16.293 125.202 6.706 135.671-11.155 12.184-20.67 13.849-46.182 8.08C806.039 863.695 708.239 844 703.758 844c-.321 0-5.414 3.857-11.318 8.57-42.01 33.546-82.038 50.643-140.44 59.985-10.056 1.608-55 2.884-64 1.817m5.917-242.76c-5.572-5.19-35.37-17.665-47.982-20.09-15.693-3.015-15.283-3.12-16.828 4.277-2.096 10.035-1.293 11.585 7.652 14.778 3.424 1.222 58.428 2.218 57.158 1.035m98.333-2.561c5.362-2.765 5.785-4.416 3.578-13.975-1.428-6.186-1.934-6.255-19.527-2.673-10.327 2.102-39.198 14.677-44.277 19.284-2.363 2.143 55.903-.407 60.226-2.636m231.688-40.388c6.76-5.27 19.032-13.53 24.812-16.7 11.879-6.515-38.806-48.439-72.664-60.103-7.517-2.59-7.507-2.567 4.894 11.274 18.584 20.741 26.512 34.712 32.55 57.366 3.482 13.057 3.298 12.5 4.126 12.5.396 0 3.223-1.951 6.282-4.337m-612.885-9.413c8.157-24.65 16.805-39.378 33.61-57.239 12.61-13.403 12.307-14.38-2.404-7.767-20.038 9.008-41.513 24.085-59.509 41.783-14.026 13.793-13.786 12.3-3 18.621 4.813 2.82 12.575 7.875 17.25 11.232s8.8 6.107 9.167 6.112 2.566-5.73 4.886-12.742m308.458-16.887c21.497-14.26 36.114-36.715 38.148-58.601l.665-7.155 3.738 4.213c4.843 5.457 8.843 15.57 10.256 25.93 1.3 9.534 1.606 9.709 9.297 5.298 15.06-8.638 22.633-30.932 16.462-48.462-2.473-7.025-2.334-7.273 3.167-5.65 9.16 2.702 18.557 16.541 20.335 29.951.789 5.945 2.04 6.403 7.048 2.584 13.757-10.493 13.296-36.492-1.046-58.912-4.409-6.892-4.074-7.559 2.606-5.186 15.65 5.558 34.763 21.744 43.552 36.882 2.986 5.144 5.277 5.775 6.315 1.74l.641-2.495 1.092 2.5c.6 1.375 1.357 4.525 1.682 7 1.072 8.182 3.225 8.945 6.158 2.182 10.167-23.45 5.617-63.235-9.514-83.182l-4.172-5.5 3.78-.328c14.266-1.238 35.681 11.483 46.85 27.83 5.36 7.844 7.745 8.712 8.218 2.99.499-6.04 1.103-6.806 3.272-4.147 2.786 3.415 7.877 27.192 7.956 37.155l.028 3.5 1.892-2.462c13.853-18.028-4.213-82.381-26.31-93.719-1.72-.882-5.696-3.973-8.835-6.87s-7.302-5.792-9.25-6.435c-7.134-2.355-4.007-3.328 8.708-2.71 14.808.719 32.708 5.11 49.265 12.088 12.92 5.444 12.16 5.784 8.073-3.618-16.996-39.096-68.644-57.158-118.152-41.32-10.48 3.352-10.043 2.853-10.754 12.308-.752 10.005-4.233 20.496-9.329 28.119l-3.757 5.619.281 10.223c.773 28.16-10.44 36.762-32.74 25.116l-7.637-3.989-5 1.825c-4.12 1.504-7.906 1.814-21.5 1.76-18.001-.07-18.717-.232-41.31-9.291-7.18-2.88-8.035-3.017-10.567-1.708-19.415 10.04-52.073 14.834-67.637 9.928l-5.189-1.636-6.398 3.143c-22.95 11.271-32.158 4.73-32.38-23.006-.095-11.835-.265-12.884-2.692-16.55-6.648-10.047-8.497-15.247-10.241-28.812l-1.157-8.997-6.827-2.745c-31.463-12.653-75.273-7.229-99.398 12.306-16.862 13.654-31.136 38.889-18.949 33.499C274.388 407.43 303.887 400 316.077 400c11.528 0 11.748-.356-7.123 11.5-22.394 14.07-36.015 41.833-35.917 73.208.073 23.63 4.8 36.135 6.844 18.111 2.893-25.505 6.486-36.084 9.193-27.069 1.517 5.055 3.47 6.07 5.317 2.767 10.947-19.58 28.064-31.537 47.609-33.257 7.256-.639 7.152-1.22 1.123 6.24-14.135 17.492-17.909 56.098-7.947 81.297 2.25 5.688 5.162 6.883 5.353 2.196.289-7.068.58-8.76 1.8-10.428 1.098-1.502 1.704-1.618 3.486-.664 1.82.974 2.433.814 3.921-1.022 15.844-19.552 31.11-31.942 45.229-36.71 7.59-2.563 8.17-2.3 4.499 2.039-15.258 18.037-17.224 48.91-3.865 60.67 6.556 5.771 7.544 5.264 8.869-4.55 1.575-11.664 10.011-23.054 19.863-26.817 5.993-2.288 6.318-1.861 3.767 4.958-3.54 9.46-2.57 27.723 1.94 36.531 4.198 8.199 20.752 19.809 21.03 14.75.073-1.307.375-3.911 1.423-12.25.827-6.574 6.452-18.12 10.936-22.446l3.573-3.446v5.505c0 22.006 15.902 47.568 39.213 63.034 5.465 3.626 5.062 3.68 13.298-1.784m-350.3-18.687c12.88-12.912 25.2-23.264 38.566-32.407 21.568-14.753 12.106-15.418-16.24-1.142-26.919 13.557-37.66 17.699-57.823 22.294l-2.786.635 4.244 5.222c18.396 22.635 17.057 22.422 34.04 5.398m709.961 7.074c16.441-18.575 16.27-17.51 3.328-20.673-12.241-2.992-23.394-7.52-47-19.082-24.991-12.242-27.575-13.32-28.85-12.045-1.656 1.656.793 5.491 5.523 8.645 13.338 8.894 30.94 23.513 43.327 35.984 16.536 16.65 15.548 16.35 23.672 7.171M403 315.09c0-11.684 7.067-19.683 13.964-15.805 12.594 7.079 24.351-4.054 17.006-16.103-8.816-14.46-38.407-4.702-45.808 15.106-4.905 13.128-2.766 19.831 6.838 21.425 7.435 1.234 8 .907 8-4.624m235.881 2.457c11.126-11.128-13.83-44.87-29.971-40.523-15.03 4.047-11.144 23.138 5.065 24.882 6.276.675 10.025 5.589 10.025 13.14 0 5.415 10.246 7.137 14.881 2.5m-291.906-10.294c14.911-38.42 39.578-62.62 69.615-68.299 11.207-2.119 24.276 3.038 40.792 16.094 9.964 7.877 10.804 8.033 7.6 1.413C446.637 218.57 387.246 227.14 357.287 272c-8.514 12.748-19.28 37.972-17.826 41.762 1.375 3.584 4.72.685 7.513-6.509m339.346 6.352c1.452-3.782-8.915-27.62-17.965-41.311-29.28-44.293-83.66-53.663-106.483-18.348-5.78 8.944-3.497 9.22 6.323.765 35.972-30.97 82.08-12.163 106.373 43.39 2.501 5.72 5.189 11.862 5.973 13.649 1.488 3.393 4.783 4.45 5.78 1.855m-354.185-47.76c3.122-5.327 8.186-12.025 12.114-16.021 9.568-9.733 8.623-10.654-16.25-15.82-16.525-3.432-21.01-2.48-17.96 3.81.716 1.477 2.92 7.411 4.896 13.186 2.999 8.764 10.299 24 11.499 24 .185 0 2.75-4.12 5.701-9.155m373.419-1.52c1.829-3.945 4.525-10.695 5.991-15 1.466-4.303 3.364-9.229 4.217-10.944 3.678-7.397-1.753-8.04-24.763-2.929-17.947 3.986-19.298 4.882-14.42 9.569 1.418 1.363 3.967 3.829 5.663 5.479 2.583 2.513 8.488 11.038 15.531 22.423 1.893 3.06 2.886 1.961 7.78-8.597M474 234.545c24.107-6.859 55.992-6.397 80.623 1.168 5.547 1.704 10.688-.165 10.107-3.673-1.726-10.41-93.82-11.348-104.108-1.061-1.545 1.545 3.38 6.286 5.869 5.647 1.105-.284 4.484-1.22 7.509-2.081m-75.76-21.455c13.08-4.5 29.85-5.154 38.954-1.52 7.869 3.143 7.233-.082-2.61-13.23C420.117 179.007 384 160.25 384 172.065c0 7.174-1.07 8.072-8.797 7.38-8.65-.772-22.356-3.168-28.634-5.004-7.283-2.13-8.072-1.949-5.718 1.308 7.114 9.843 26.113 26.41 39.559 34.494 8.891 5.346 10.032 5.528 17.83 2.845m245.737-2.698c18.093-10.762 49.976-40.034 40.273-36.974-24.058 7.587-41.95 7.483-42.448-.247-.954-14.761-42.612 9.588-56.012 32.74-4.657 8.045-4.254 8.624 3.873 5.565 9.862-3.712 25.953-2.93 38.837 1.888 5.988 2.24 7.063 2.033 15.477-2.972m-165.58-7.916c7.615-4.99 59.058-5.337 69.119-.467 2.217 1.073 5.554 2.256 7.414 2.628l3.383.677-.661-3.303c-3.475-17.374-20.524-42.844-38.937-58.167-7.102-5.91-5.795-6.041-14.318 1.43-17.928 15.716-32.687 38.762-35.944 56.127l-.732 3.9 4.21-.673c2.315-.37 5.225-1.338 6.466-2.152"/><path style="display:inline;fill:#c4750a" d="M488 914.372c-62.781-7.446-112.12-27.458-155.766-63.178-3.155-2.582-6.483-5.279-7.396-5.993-1.388-1.085-5.01-.64-22 2.705-11.186 2.202-26.638 5.17-34.338 6.597-26.824 4.967-50.178 9.721-77 15.675-35.96 7.982-40.752 7.483-54.169-5.643-10.779-10.545-10.68-6.379-1.821-77.055 8.787-70.105 12.481-101.928 12.512-107.776.073-13.903 8.942-19.704 30.127-19.704 9.633 0 12.842-.313 12.815-1.25-.052-1.83-12.086-11.084-24.048-18.492-29.976-18.566-44.345-31.069-64.085-55.758-11.82-14.784-13.25-18.504-9.964-25.931 2.358-5.331 5.398-7.066 13.866-7.912 13.74-1.373 30.28-6.277 48.767-14.459 42.754-18.923 63.596-25.975 91.5-30.958 4.08-.728 4.5-1.067 4.5-3.623v-2.82l-14.5-.313c-32.262-.698-70.67-14.426-87.529-31.286-11.258-11.258 35.564-58.284 71.943-72.258 7.841-3.011 6.9-1.807 14.965-19.175 11.933-25.699 39.212-50.785 71.098-65.383 6.602-3.023 6.61-3.067 1.466-9.573-13.22-16.724-23.135-40.185-26.334-62.309-4.773-33.01-4.456-33.674 15.955-33.442 16.246.184 15.363.852 11.502-8.71-6.285-15.566-10.944-39.372-9.07-46.336 3.83-14.219 12.117-15.081 46.758-4.866l10.255 3.024 3.245-2.736c13.933-11.749 55.617.136 85.521 24.382 2.352 1.907 4.425 3.29 4.608 3.075s2.296-4.2 4.697-8.855C468.422 140.108 500.687 109 513.164 109c11.54 0 44.495 32.245 58.034 56.782l4.018 7.282 4.142-3.357c27.13-21.99 68.495-35.042 82.142-25.92l6 4.012 15.5-4.457c42.427-12.199 52.14 3.56 32.407 52.583-4.134 10.27-5.193 9.408 11.327 9.22 19.443-.223 19.765.155 17.749 20.895-3.007 30.94-12.526 55.978-28.566 75.14-5.14 6.14-5.629 5.386 8.306 12.82 36.933 19.703 59.834 43.74 69.195 72.63 1.523 4.7 2.058 5.278 6.372 6.901 39.922 15.023 87.88 62.467 74.96 74.156-20.23 18.303-55.002 30.504-87.544 30.719-13.841.091-14.31.163-14.844 2.287-.837 3.334-.049 3.863 7.843 5.269 29.417 5.242 50.478 12.402 94.22 32.032 14.547 6.527 30.485 11.137 43.075 12.457 10.994 1.152 16.035 5.644 15.796 14.073-.388 13.697-36.665 50.99-70.796 72.78-31.68 20.224-32.913 22.423-12.832 22.876 21.658.49 25.918 4.265 27.413 24.295.468 6.268 2.66 25.937 4.87 43.71 16.767 134.79 16.293 125.202 6.706 135.671-11.155 12.184-20.67 13.849-46.182 8.08C806.039 863.695 708.239 844 703.758 844c-.321 0-5.414 3.857-11.318 8.57-42.01 33.546-82.038 50.643-140.44 59.985-10.056 1.608-55 2.884-64 1.817m54.5-30.79c5.5-.793 12.475-1.722 15.5-2.064s7.075-1.017 9-1.501 7.55-1.87 12.5-3.082c21.135-5.17 50.87-17.387 63.618-26.138 9.251-6.351 21.882-16.054 21.882-16.81-11.404-9.432-164.448-10.04-178.5-10.072-40.822-.094-106.874 7.29-111.5 7.54-16.562.898-16.892 1.303-6.804 8.354 1.817 1.27 5.643 4.03 8.503 6.136 2.859 2.105 7.134 4.818 9.5 6.03s5.989 3.49 8.301 4.598c10.325 4.945 19.467 9.93 31 13.962 4.401 2.174 28.232 8.202 41.5 10.497 15.898 2.75 19.379 3.208 29.5 3.873 14.834.974 33.855.427 46-1.324m-48.583-211.97c-5.572-5.19-35.37-17.665-47.982-20.09-15.693-3.015-15.283-3.12-16.828 4.277-2.096 10.035-1.293 11.585 7.652 14.778 3.424 1.222 58.428 2.218 57.158 1.035m98.333-2.561c5.362-2.765 5.785-4.416 3.578-13.975-1.428-6.186-1.934-6.255-19.527-2.673-10.327 2.102-39.198 14.677-44.277 19.284-2.363 2.143 55.903-.407 60.226-2.636M307.256 660c2.173-5.775 5.654-15.45 7.736-21.5s6.31-16.772 9.397-23.828c3.086-7.055 5.611-12.992 5.611-13.193 0-.202-3.406-2.93-7.57-6.064-11.876-8.938-24.143-23.999-26.403-32.415-1.632-6.08-9.057 4.07-23.365 31.936C259.822 619.943 246 658.808 246 669.904c0 .816 7.907 1.053 28.653.861l28.653-.265Zm472.168 8.25c-.338-1.512-1.405-5.9-2.373-9.75-.967-3.85-2.29-9.206-2.942-11.903-5.174-21.435-39.981-90.66-43.487-86.49-.182.216-2.033 3.668-4.115 7.67-4.19 8.06-13.13 18.285-22.956 26.257-9.012 7.312-9.163 5.551 2.827 33.065 2.54 5.829 7.092 17.681 10.116 26.338s5.751 16.15 6.06 16.652c.318.514 12.976.911 29.024.911h28.46zm-134.467.068c21.46.666 15.322-2.85 14.068-14.15-.434-3.91-.191-5.27-3.434-16.77-5.657-20.064-5.554-19.944-10.854-12.648-1.898 2.612-7.177 8.71-11.732 13.551l-8.281 8.801 1.746 10.7c1.992 12.2 2.137 12.588 4.381 11.632.907-.387 7.781-.889 14.106-1.116m-246.463-9.288 1.83-9.969-7.468-7.817c-5.868-6.141-12.651-14.399-16.542-20.137-.844-1.245-3.327 2.692-4.23 6.708-.58 2.577-2.172 8.735-3.539 13.685s-2.498 10.927-2.515 13.282-.705 5.898-1.53 7.872c-2.202 5.27-2.122 5.327 5.559 5.346 13.232.033 10.84.355 22.524.864l4.082.136Zm425.444-30.367c6.76-5.27 19.032-13.53 24.812-16.7 11.879-6.515-38.806-48.439-72.664-60.103-7.517-2.59-7.507-2.567 4.894 11.273 18.584 20.742 26.512 34.713 32.55 57.367 3.482 13.057 3.298 12.5 4.126 12.5.396 0 3.223-1.951 6.282-4.337m-612.885-9.413c8.157-24.65 16.805-39.378 33.61-57.239 12.61-13.403 12.307-14.38-2.404-7.767-20.038 9.008-41.513 24.085-59.509 41.783-14.026 13.793-13.786 12.3-3 18.621 4.813 2.82 12.575 7.875 17.25 11.232s8.8 6.107 9.167 6.112 2.566-5.73 4.886-12.742m308.458-16.887c21.497-14.26 36.114-36.715 38.148-58.601l.665-7.155 3.738 4.213c4.843 5.457 8.843 15.57 10.256 25.93 1.3 9.534 1.606 9.709 9.297 5.298 15.06-8.638 22.633-30.932 16.462-48.462-2.473-7.025-2.334-7.273 3.167-5.65 9.16 2.702 18.557 16.541 20.335 29.951.789 5.945 2.04 6.403 7.048 2.584 13.757-10.493 13.296-36.492-1.046-58.912-4.409-6.892-4.074-7.559 2.606-5.186 15.65 5.558 34.763 21.744 43.552 36.882 2.986 5.144 5.277 5.775 6.315 1.74l.641-2.495 1.092 2.5c.6 1.375 1.357 4.525 1.682 7 1.072 8.182 3.225 8.945 6.158 2.182 10.167-23.45 5.617-63.235-9.514-83.182l-4.172-5.5 3.78-.328c14.266-1.238 35.681 11.483 46.85 27.83 5.36 7.844 7.745 8.712 8.218 2.99.499-6.04 1.103-6.806 3.272-4.147 2.786 3.415 7.877 27.192 7.956 37.155l.028 3.5 1.892-2.462c13.853-18.028-4.213-82.381-26.31-93.719-1.72-.882-5.696-3.973-8.835-6.87s-7.302-5.792-9.25-6.435c-7.134-2.355-4.007-3.328 8.708-2.71 14.808.719 32.708 5.11 49.265 12.088 12.92 5.444 12.16 5.784 8.073-3.618-16.996-39.096-68.644-57.158-118.152-41.32-10.48 3.352-10.043 2.853-10.754 12.308-.752 10.005-4.233 20.496-9.329 28.119l-3.757 5.619.281 10.223c.773 28.16-10.44 36.762-32.74 25.116l-7.637-3.989-5 1.825c-4.12 1.504-7.906 1.814-21.5 1.76-18.001-.07-18.717-.232-41.31-9.291-7.18-2.88-8.035-3.017-10.567-1.708-19.415 10.04-52.073 14.834-67.637 9.928l-5.189-1.636-6.398 3.143c-22.95 11.271-32.158 4.73-32.38-23.006-.095-11.835-.265-12.884-2.692-16.55-6.648-10.047-8.497-15.247-10.241-28.812l-1.157-8.997-6.827-2.745c-31.463-12.653-75.273-7.229-99.398 12.306-16.862 13.654-31.136 38.889-18.949 33.499C274.388 407.43 303.887 400 316.077 400c11.528 0 11.748-.356-7.123 11.5-22.394 14.07-36.015 41.833-35.917 73.208.073 23.63 4.8 36.135 6.844 18.111 2.893-25.505 6.486-36.084 9.193-27.069 1.517 5.055 3.47 6.07 5.317 2.767 10.947-19.58 28.064-31.537 47.609-33.257 7.256-.639 7.152-1.22 1.123 6.24-14.135 17.492-17.909 56.098-7.947 81.297 2.25 5.688 5.162 6.883 5.353 2.196.289-7.068.58-8.76 1.8-10.428 1.098-1.502 1.704-1.618 3.486-.664 1.82.974 2.433.814 3.921-1.022 15.844-19.552 31.11-31.942 45.229-36.71 7.59-2.563 8.17-2.3 4.499 2.039-15.258 18.037-17.224 48.91-3.865 60.67 6.556 5.771 7.544 5.264 8.869-4.55 1.575-11.664 10.011-23.054 19.863-26.817 5.993-2.288 6.318-1.861 3.767 4.958-3.54 9.46-2.57 27.723 1.94 36.531 4.198 8.199 20.752 19.809 21.03 14.75.073-1.307.375-3.911 1.423-12.25.827-6.574 6.452-18.12 10.936-22.446l3.573-3.446v5.505c0 22.006 15.902 47.568 39.213 63.034 5.465 3.626 5.062 3.68 13.298-1.784m-353.267-15.896c6.057-6.343 15.567-15.137 21.134-19.543a3406 3406 0 0 0 13.93-11.072c4.696-3.776 9.682-6.55 30.692-17.072 16.707-8.368 18.726-10.683 6-6.882-24.979 7.46-30.689 9.778-53.5 21.71-17.822 9.322-31.698 14.463-50.786 18.813l-2.786.635 4.244 5.222c18.004 22.152 17.792 22.096 31.072 8.19m712.928 4.283c16.441-18.575 16.27-17.51 3.328-20.673-12.304-3.007-23.336-7.5-48-19.546-11.55-5.641-23.025-10.97-25.5-11.843-20.497-7.225-42.239-11.573-28-5.599 29.298 12.293 51.462 27.316 74.5 50.498 16.536 16.64 15.548 16.341 23.672 7.163M487.757 407.508c9.841-1.507 15.806-3.072 22.292-5.848 3.25-1.39 3.892-1.366 7.61.299 31.416 14.065 77.805 4.315 89.797-18.874 2.667-5.157 3.19-14.713.943-17.196-2.524-2.79.317-5.175 14.101-11.842 41.55-20.097 84.883-18.87 119.001 3.369 10.495 6.84 10.734 5.961.914-3.367-14.213-13.5-30.181-22.228-51.478-28.134-19.335-5.362-21.937-8.275-9.265-10.374 5.582-.924 5.716-1.811 1.913-12.686-21.153-60.481-78.286-89.421-114.23-57.861-4.226 3.71-5.437 3.748-7.984.256-3.558-4.878-3.528-5.905.271-9.24 4.741-4.163 3.92-5.375-5.31-7.832-35.273-9.389-105.912-4.2-93.582 6.875 3.927 3.527 3.972 4.133.631 8.514-3.267 4.283-4.504 4.285-9.713.017-35.713-29.264-90.723-.38-111.103 58.338-4.334 12.487-4.428 12.048 2.996 14.015 10.56 2.798 8.717 4.807-8.561 9.335-22.323 5.85-39.348 14.943-54.849 29.295-8.758 8.108-8.621 8.985.486 3.116 34.79-22.425 78.785-23.732 120.237-3.572 12.893 6.27 15.95 8.983 13.809 12.25-9.175 14.003 19.102 38.88 47.317 41.629 11.71 1.14 13.382 1.107 23.757-.482m99.743-64.745c-7.186-2.538-18.468-12.473-21.023-18.513-1.333-3.15-2.181-3.653-5.6-3.324-6.01.58-3.301-27.998 3.88-40.913 17.805-32.027 55.789-35.45 84.59-7.624 8.496 8.208 8.293 10.611-.898 10.611-4.296 0-4.295.13.085 11.5 7.131 18.51 3.802 32.72-8.198 34.996-10.644 2.019-31.762 7.826-39.62 10.896-8.616 3.364-9.8 3.577-13.216 2.37m51.381-25.216c11.126-11.128-13.83-44.87-29.971-40.523-15.03 4.047-11.144 23.138 5.065 24.882 6.276.675 10.025 5.589 10.025 13.14 0 5.415 10.246 7.137 14.881 2.5M423.5 340.424c-8.962-3.722-19.601-6.911-33-9.891-16.675-3.709-20.303-14.048-12.632-35.995 4.798-13.728 4.337-15.538-3.95-15.538-4.95 0-4.914-.964.246-6.562 26.597-28.855 71.363-23.38 87.865 10.745 7.867 16.268 8.062 44.092.288 41.108-.955-.366-4.056 1.954-8.653 6.472-12.187 11.981-19.182 14.221-30.164 9.66M403 315.089c0-11.683 7.067-19.682 13.964-15.804 12.594 7.079 24.351-4.054 17.006-16.103-8.816-14.46-38.407-4.702-45.808 15.106-4.905 13.128-2.766 19.831 6.838 21.425 7.435 1.234 8 .907 8-4.624m-70.864-49.244c3.122-5.327 8.186-12.025 12.114-16.021 9.568-9.733 8.623-10.654-16.25-15.82-16.525-3.432-21.01-2.48-17.96 3.81.716 1.477 2.92 7.411 4.896 13.186 2.999 8.764 10.299 24 11.499 24 .185 0 2.75-4.12 5.701-9.155m373.419-1.52c1.829-3.945 4.525-10.695 5.991-15 1.466-4.303 3.364-9.229 4.217-10.944 3.678-7.397-1.753-8.04-24.763-2.929-17.947 3.986-19.298 4.882-14.42 9.569 1.418 1.363 3.967 3.829 5.663 5.479 2.583 2.513 8.488 11.038 15.531 22.423 1.893 3.06 2.886 1.961 7.78-8.597M398.24 213.09c13.08-4.5 29.85-5.154 38.954-1.52 7.869 3.143 7.233-.082-2.61-13.23C420.117 179.007 384 160.25 384 172.065c0 7.174-1.07 8.072-8.797 7.38-8.65-.772-22.356-3.168-28.634-5.004-7.283-2.13-8.072-1.949-5.718 1.308 7.114 9.843 26.113 26.41 39.559 34.494 8.891 5.346 10.032 5.528 17.83 2.845m245.737-2.698c18.093-10.762 49.976-40.034 40.273-36.974-24.058 7.587-41.95 7.483-42.448-.247-.954-14.761-42.612 9.588-56.012 32.74-4.657 8.045-4.254 8.624 3.873 5.565 9.862-3.712 25.953-2.93 38.837 1.888 5.988 2.24 7.063 2.033 15.477-2.972m-165.58-7.916c7.615-4.99 59.058-5.337 69.119-.467 2.217 1.073 5.554 2.256 7.414 2.628l3.383.677-.661-3.303c-3.475-17.374-20.524-42.844-38.937-58.167-7.102-5.91-5.795-6.041-14.318 1.43-17.928 15.716-32.687 38.762-35.944 56.127l-.732 3.9 4.21-.673c2.315-.37 5.225-1.338 6.466-2.152"/><path style="display:inline;fill:#0971bc" d="M492.5 913.973c-61.915-5.104-118.669-28.173-163.93-66.634-4.805-4.083-5.354-4.091-24.108-.37-8.229 1.633-23.512 4.545-33.962 6.473-23.561 4.345-56.438 11.002-83.936 16.995-29.826 6.5-35.896 5.849-47.68-5.119-11.923-11.095-11.861-4.973-.939-92.318 4.917-39.325 9.443-77.35 10.056-84.5 2.029-23.638 5.728-27.5 26.342-27.5 23.812 0 21.692-3.715-15.063-26.395-54.91-33.882-85.263-83.548-51.094-83.6 9.064-.013 28.694-5.923 48.56-14.62 41.424-18.133 56.624-23.57 77.754-27.81 7.15-1.436 13.983-2.828 15.183-3.095 2.358-.523 3.712-3.288 2.788-5.694-.464-1.21-3.771-1.615-17.272-2.114-47.249-1.748-92.963-24.91-83.754-42.436 12.233-23.279 38.753-46.229 67.555-58.462 11.74-4.986 11.524-4.809 13.585-11.101 8.698-26.55 34.71-53.644 67.954-70.779 14.838-7.647 14.684-7.375 8.568-15.185-16.754-21.395-25.759-47.364-27.76-80.057-.84-13.757-.979-13.652 17.876-13.652 15.992 0 15.584.373 11.226-10.27-20.675-50.5-8.191-66.102 39.427-49.276 6.235 2.203 8.591 1.945 13.287-1.457 13.503-9.781 55.057 2.356 81.042 23.671 6.88 5.643 6.9 5.637 11.853-3.418 12.562-22.965 39.098-50.225 53.922-55.393 9.935-3.463 44.436 27.6 58.514 52.685 6.486 11.555 6.137 11.41 13.65 5.69 28.486-21.688 68.72-33.314 80.251-23.19 4.167 3.658 4.409 3.657 17.41-.131 31.354-9.134 41.239-7.857 43.773 5.654 1.63 8.69-4.478 37.318-10.547 49.435-2.903 5.794-2.44 6 13.48 6 19.744 0 19.464-.37 17.06 22.583-3.083 29.462-13.683 55.926-29.742 74.257-3.694 4.217-3.139 4.976 7.571 10.361 36.701 18.453 59.354 41.576 71.017 72.49 2.69 7.132 2.756 7.205 7.898 8.871 29.132 9.44 60.624 36.547 74.587 64.202 2.727 5.4 2.07 6.74-6.165 12.568-25.726 18.207-52.01 26.599-83.468 26.649-12.222.019-12.231.02-12.862 2.532-.803 3.2 1.06 5.488 4.465 5.484 1.446 0 5.553.659 9.128 1.466 3.575.808 10.775 2.42 16 3.58 10.028 2.229 38.71 12.879 60.5 22.465 7.15 3.145 16.141 7.079 19.98 8.74 8.506 3.682 28.366 8.725 34.52 8.766 13.941.093 19.598 10.347 12.168 22.06-14.163 22.326-38.018 44.938-66.865 63.38-31.87 20.373-33.313 22.847-13.786 23.627 21.589.861 26.232 4.557 27.58 21.953.431 5.578 1.718 17.64 2.858 26.803 4.208 33.83 9.166 74.002 10.572 85.663.796 6.6 2.35 19.425 3.454 28.5 3.493 28.722 2.313 34.656-8.674 43.612-10.913 8.897-18.342 9.928-38.45 5.34-27.292-6.228-69.178-14.935-95.857-19.926-15.125-2.83-30.744-5.794-34.708-6.586-12.02-2.402-12.11-2.376-23.897 6.982-56.254 44.662-129.354 67.284-198.895 61.551m50-30.392c5.5-.792 12.475-1.72 15.5-2.063 3.025-.342 7.075-1.017 9-1.501s7.55-1.87 12.5-3.082c21.135-5.17 50.87-17.387 63.618-26.138 9.251-6.351 22.627-16.686 21.882-16.81-98.102-16.248-317.917-9.17-296.804 5.822 1.817 1.27 5.643 4.03 8.503 6.136 2.859 2.105 7.134 4.818 9.5 6.03s5.999 3.47 8.301 4.598c17.085 8.376 20.813 10.038 31 13.962 4.581 1.764 28.232 8.202 41.5 10.497 15.898 2.75 19.379 3.208 29.5 3.873 14.834.974 33.855.427 46-1.324m42.75-210.242 13.75-.595v-5.189c0-6.655-1.78-16.473-3.461-19.094-.72-1.121-1.325-4.271-1.346-7-.12-15.66-3.816-19.012-13.27-12.037-12.81 9.45-31.112 18.348-34.267 16.66-2.474-1.325-2.87-1.143-8.873 4.053-7.84 6.788-12.82 10.555-19.521 14.765l-5.239 3.292-9.261-5.84c-5.094-3.212-12.275-8.43-15.958-11.597-6.909-5.94-8.33-6.646-9.07-4.507-1.048 3.026-23.955-8.645-35.059-17.86-8.618-7.154-10.82-5.007-12.42 12.11-.309 3.3-1.127 6.9-1.818 8-1.162 1.848-4.437 18.555-4.437 22.634 0 1.53 1.097 1.825 7.75 2.087 15.365.604 139.066.7 152.5.118M307.256 660c2.173-5.775 5.654-15.45 7.736-21.5s6.31-16.772 9.397-23.828c3.086-7.055 5.611-12.992 5.611-13.193 0-.202-3.406-2.93-7.57-6.064-11.876-8.938-24.143-23.999-26.403-32.415-1.632-6.08-9.057 4.07-23.365 31.936C259.822 619.943 246 658.808 246 669.904c0 .816 7.907 1.053 28.653.861l28.653-.265Zm472.168 8.25c-.338-1.512-1.405-5.9-2.373-9.75-.967-3.85-2.29-9.206-2.942-11.903-5.174-21.435-39.981-90.66-43.487-86.49-.182.216-2.033 3.668-4.115 7.67-4.19 8.06-13.13 18.285-22.956 26.257-9.012 7.312-9.163 5.551 2.827 33.065 2.54 5.829 7.092 17.681 10.116 26.338s5.751 16.15 6.06 16.652c.318.514 12.976.911 29.024.911h28.46ZM644 668.318c20.895-.347 16.158-2.268 14.648-14.15-.455-3.575.186-5.27-3.057-16.77-5.657-20.064-5.554-19.944-10.854-12.648-1.898 2.613-7.177 8.71-11.732 13.551l-8.281 8.801 1.746 10.7c1.992 12.2 1.654 12.008 4.381 11.632.977-.135 6.824-.889 13.149-1.116m-245.506-9.288 1.83-9.969-7.468-7.817c-5.868-6.141-12.651-14.399-16.542-20.136-.844-1.246-3.327 2.691-4.23 6.707-.58 2.577-2.172 8.735-3.539 13.685s-2.498 10.927-2.515 13.282-.705 5.898-1.53 7.872c-2.202 5.27-2.12 5.178 5.559 5.346 10.593.232 14.152.28 22.524.864l4.082.136Zm-173.691-14.78c.575-1.512 2.034-5.9 3.243-9.75 6.317-20.114 17.042-42.397 29.134-60.526l7.906-11.854-3.578-7.105c-5.014-9.956-4.587-9.967-26.008.693-22.02 10.958-56.74 37.97-64.908 50.498-2.29 3.512-2.251 3.557 8.662 10.07 11.03 6.582 25.556 16.886 35.15 24.933 7.83 6.568 8.935 6.89 10.399 3.041m585.898-3c3.93-3.162 9.9-7.947 13.267-10.633 6.326-5.044 18.197-13.08 26.36-17.842 12.572-7.335-33.969-46.961-73.646-62.706-9.097-3.61-8.834-3.692-12.704 3.975-3.954 7.832-4.068 7.332 4.56 20.013 11.507 16.91 27.464 52.093 31.836 70.193.938 3.884 2.245 3.504 10.327-3m-288.514-3.065c15.072-11.978 25.86-27.695 32.253-46.99 2.066-6.238 4.107-6.595 6.808-1.192 2.443 4.886 2.307 15.411-.298 23.145-6.905 20.498 33.155-13.324 44.734-37.768 6.826-14.41 14.579 6.088 7.893 20.87-1.704 3.769 2.565 1.58 9.286-4.76 24.51-23.121 32.754-55.915 21.294-84.705-2.106-5.289 1.004-4.124 7.564 2.834C664.26 522.919 672 543.355 672 563.16c0 12.798-.24 12.677 8.147 4.09 24.743-25.33 31.797-60.171 18.637-92.052-3.564-8.634-3.29-9.27 2.53-5.86 16.754 9.819 30.358 28.693 37.172 51.575 3.531 11.855 4.69 11.735 8.59-.897 12.939-41.89 2.243-80.624-30.076-108.921-9.738-8.527 17.65-5.834 45.344 4.458 12.597 4.681 13.176 4.173 7.65-6.716-19.86-39.13-72.454-58.285-118.722-43.24-11.985 3.896-11.894 3.795-12.54 14.083-.661 10.527-3.152 18.101-9.126 27.748-4.335 7-4.372 7.134-3.539 13.072 4.211 30.029-9.909 38.806-37.2 23.122-3.983-2.289-5.034-2.507-7.5-1.557-17.546 6.76-39.05 5.994-59.602-2.124l-9.734-3.845-5.266 2.41c-18.052 8.262-41.115 10.31-58.053 5.155l-8.788-2.674-5.468 3.498c-24.202 15.482-39.65 5.125-35.549-23.834l.963-6.798-4.467-6.66c-5.38-8.02-8.367-17.008-9.126-27.448-.838-11.532-14.799-18.39-38.277-18.805-44.114-.778-74.388 14.447-92.347 46.443-7.603 13.545-7.65 13.521 12.435 6.294 28.367-10.207 51.206-10.936 37.96-1.212-30.898 22.68-42.676 76.748-25.005 114.785 1.922 4.136 2.482 3.518 5.446-6 7.378-23.692 21.765-44.063 36.873-52.207 5.912-3.187 6.496-2.347 3.307 4.76-14.222 31.69-6.007 70.87 19.96 95.197l5.871 5.5.615-13.5c1.005-22.06 6.806-36.789 20.382-51.75 8.054-8.877 9.686-8.7 6.517.707-8.822 26.189-.58 57.4 20.937 79.293 10.507 10.69 12.37 11.226 10.433 3-2.383-10.13-1.578-19.253 2.211-25.035l1.664-2.54 5.277 10.67c8.15 16.478 19.124 28.653 35.201 39.054 10.04 6.494 10.232 6.418 7.763-3.06-3.15-12.094 2.553-34.138 6.124-23.672 13.153 38.55 37.807 62.244 52.563 50.518M186.164 569.87c5.135-4.134 11.474-9.022 14.086-10.862 2.613-1.841 4.765-4.058 4.783-4.928.017-.869 1.48-2.31 3.25-3.204 45.017-22.722 49.351-25.836 24.25-17.427a763 763 0 0 1-14.033 4.52c-3.85 1.191-16 6.684-27 12.207C164.658 563.654 142.687 572 134.052 572c-5.506 0 2.107 12.428 14.96 24.425l5.277 4.925 11.27-11.982c6.198-6.59 15.47-15.365 20.605-19.498m691.459 24.88c19.739-20.502 19.873-21.496 3.395-25.168-10.352-2.306-22.01-7.08-46.518-19.05-11.55-5.642-23.025-10.971-25.5-11.844-20.497-7.225-42.239-11.573-28-5.599 12.185 5.113 39 19.519 39 20.953 0 .49 5.513 5.273 12.25 10.63 6.738 5.355 17.875 15.467 24.75 22.47 14.412 14.679 13.972 14.516 20.623 7.608M253.15 469.14c.358-.352 1.375-4.197 2.26-8.544 1.334-6.558 3.605-13.01 9.32-26.484.936-2.206-7.418-.589-21.45 4.154-14.301 4.833-13.263 5.297-14.492-6.47-.535-5.112-1.367-9.71-1.85-10.215-3.538-3.706-42.939 26.707-42.939 33.145 0 8.428 62.075 21.367 69.15 14.414m557.058-1.224c34.306-7.495 36.032-14.818 8.291-35.163-19.096-14.006-21.967-14.137-22.887-1.05-.875 12.443-.447 12.204-13.252 7.408-22.325-8.36-24.063-8.121-19.11 2.633 1.966 4.266 4.331 11.131 5.257 15.256 2.985 13.3 2.452 12.426 8.01 13.137 7.627.976 23.999-.103 33.691-2.22m-322.452-60.408c9.841-1.507 15.806-3.072 22.292-5.848 3.25-1.39 3.892-1.366 7.61.299 31.416 14.065 77.805 4.315 89.797-18.874 2.667-5.157 3.19-14.713.943-17.196-2.524-2.79.317-5.175 14.101-11.842 41.55-20.097 84.883-18.87 119.001 3.369 10.495 6.84 10.734 5.961.914-3.367-14.213-13.5-30.181-22.228-51.478-28.134-19.335-5.362-21.937-8.275-9.265-10.374 5.582-.924 5.716-1.811 1.913-12.686-21.153-60.481-78.286-89.421-114.23-57.861-4.226 3.71-5.437 3.748-7.984.256-3.558-4.878-3.528-5.905.271-9.24 4.741-4.163 3.92-5.375-5.31-7.832-35.273-9.389-105.912-4.2-93.582 6.875 3.927 3.527 3.972 4.133.631 8.514-3.267 4.283-4.504 4.285-9.713.017-35.713-29.264-90.723-.38-111.103 58.338-4.334 12.487-4.428 12.048 2.996 14.015 10.56 2.798 8.717 4.807-8.561 9.335-22.323 5.85-39.348 14.943-54.849 29.295-8.758 8.108-8.621 8.985.486 3.116 34.79-22.425 78.785-23.732 120.237-3.572 12.893 6.27 15.95 8.983 13.809 12.25-9.175 14.003 19.102 38.88 47.317 41.629 11.71 1.14 13.382 1.107 23.757-.482m99.743-64.745c-7.186-2.538-18.468-12.473-21.023-18.513-1.333-3.15-2.181-3.653-5.6-3.324-6.01.58-3.301-27.998 3.88-40.913 17.805-32.027 55.789-35.45 84.59-7.624 8.496 8.208 8.293 10.611-.898 10.611-4.296 0-4.295.13.085 11.5 7.131 18.51 3.802 32.72-8.198 34.996-10.644 2.019-31.762 7.826-39.62 10.896-8.616 3.364-9.8 3.577-13.216 2.37m51.381-25.216c11.126-11.128-13.83-44.87-29.971-40.523-15.03 4.047-11.144 23.138 5.065 24.882 6.276.675 10.025 5.589 10.025 13.14 0 5.415 10.246 7.137 14.881 2.5M423.5 340.424c-8.962-3.722-19.601-6.911-33-9.891-16.675-3.709-20.303-14.048-12.632-35.995 4.798-13.728 4.337-15.538-3.95-15.538-4.95 0-4.914-.964.246-6.562 26.597-28.855 71.363-23.38 87.865 10.745 7.867 16.268 8.062 44.092.288 41.108-.955-.366-4.056 1.954-8.653 6.472-12.187 11.981-19.182 14.221-30.164 9.66M403 315.089c0-11.683 7.067-19.682 13.964-15.804 12.594 7.079 24.351-4.054 17.006-16.103-8.816-14.46-38.407-4.702-45.808 15.106-4.905 13.128-2.766 19.831 6.838 21.425 7.435 1.234 8 .907 8-4.624m-71.196-45.35c4.236-7.718 10.547-16.419 17.16-23.659 2.22-2.43 4.036-4.738 4.036-5.127 0-3.903-21.145-8.876-36.5-8.586l-7 .133-.07 3c-.212 8.95 13.27 41.5 17.187 41.5.661 0 2.995-3.267 5.187-7.26m369.43 5.511c4.874-5.525 15.56-32.932 15.366-39.411l-.1-3.339-7-.11c-20.84-.327-42.248 6.17-35.622 10.812 4.408 3.087 19.095 23.49 22.057 30.64 1.474 3.559 3.035 3.974 5.299 1.408m-326.586-49.425c20.67-12.593 43.862-17.697 62.372-13.727 6.27 1.344 6.823.885 4.39-3.64-13.017-24.209-56.61-51.23-57.605-35.708l-.305 4.75-9.5.31c-13.28.435-24.257-2.178-43.407-10.333-7.568-3.222 5.454 30.566 17.786 46.15 12.292 15.533 17.117 17.774 26.269 12.198m289.672.298c14.161-9.748 29.121-34.875 32.039-53.813.886-5.754.288-5.818-10.969-1.176-23.038 9.499-42.43 10.303-43.39 1.8-.791-7.018-10.578-5.339-27.966 4.797-15.078 8.79-39.98 39.75-28.249 35.122 14.014-5.529 43.44-.125 63.215 11.607 8.917 5.29 9.895 5.397 15.32 1.663m-179.961-23.13c22.594-3.03 47.858-2.432 70.544 1.671 12.535 2.268-14.03-42.382-36.188-60.821-7.343-6.111-11.23-4.041-27.52 14.657-11.812 13.557-27.812 46.537-22.556 46.493.473-.004 7.547-.904 15.72-2"/><path style="display:inline;fill:#071732" d="M492.5 914.047c-62.427-5.657-113.19-25.892-160.5-63.976-4.3-3.461-8.494-6.044-9.829-6.054-4.715-.034-93.208 17.214-135.607 26.432-29.596 6.434-35.633 5.824-47.221-4.767-12.464-11.39-12.367-4.963-1.398-92.682 4.917-39.325 9.443-77.35 10.056-84.5 2.096-24.423 5.35-27.488 29.217-27.515 21.316-.025 19.429-3.02-15.749-24.985-57.44-35.867-88.205-84.942-53.283-84.994 9.064-.014 28.694-5.924 48.56-14.621 41.604-18.212 58.684-24.24 80.254-28.322 14.482-2.74 16-3.355 16-6.483 0-3.478-.008-3.48-17.61-3.943-46.278-1.217-93.146-24.89-83.945-42.401 12.233-23.279 38.753-46.229 67.555-58.462 11.74-4.986 11.524-4.809 13.585-11.101 9.157-27.952 35.625-54.696 72.422-73.176 10.527-5.287 10.366-4.787 4.115-12.768-16.77-21.415-25.773-47.372-27.774-80.077-.845-13.804-1.05-13.652 18.375-13.652 7.852 0 14.277-.388 14.277-.862 0-.475-1.376-4.187-3.058-8.25-21.634-52.268-10.871-66.048 39.317-50.343l7.759 2.428 4.531-3.459c13.838-10.562 54.99 1.313 82.432 23.787 3.342 2.737 6.211 4.8 6.377 4.587s2.244-3.988 4.62-8.388c12.381-22.932 39.057-50.433 53.957-55.627 10.78-3.758 48.302 31.57 61.47 57.877 3.096 6.185 3.615 6.293 8.992 1.89 26.615-21.796 69.264-34.676 81.709-24.675 4.65 3.737 4.686 3.737 17.7-.054 27.274-7.945 34.128-8.167 40.159-1.299 6.181 7.041 3.689 30.7-5.561 52.788-4.452 10.629-5.656 9.598 11.23 9.615 20.245.021 20.125-.099 18.423 18.336-2.896 31.355-12.377 56.672-28.656 76.514-5.641 6.877-5.8 6.414 3.849 11.235 38.568 19.274 61.3 42.137 73.167 73.591 2.688 7.125 2.76 7.207 7.898 8.892 28.487 9.342 58.607 34.657 73.026 61.375 4.733 8.77 4.466 9.383-7.558 17.38-28.485 18.942-50.71 24.867-92.533 24.668-.758-.004-1.25 1.344-1.25 3.427 0 3.96-.38 3.781 13 6.11 21.91 3.815 43.662 11.105 77.5 25.972a5223 5223 0 0 0 19.98 8.734c8.506 3.681 28.366 8.724 34.52 8.765 13.941.093 19.598 10.347 12.168 22.06-14.163 22.326-38.018 44.938-66.865 63.38-14.531 9.29-28.234 19.763-29.024 22.184-.261.802 3.848 1.259 13.925 1.549 15.863.457 20.044 1.754 25.13 7.799 2.785 3.31 3.268 5.342 4.099 17.248.494 7.091 3.542 32.582 14.556 121.735 5.737 46.439 5.357 49.83-6.682 59.643-10.913 8.897-18.342 9.928-38.45 5.34-29.408-6.71-70.172-15.123-103.857-21.433-19.525-3.658-36.207-6.85-37.072-7.095-.922-.262-6.274 3.273-12.955 8.553-56.861 44.95-131.635 68.217-199.473 62.07m48.734-27.493c50.995-6.326 88.32-20.843 124.175-48.295 10.566-8.09 11.192-7.748-20.53-11.227-84.28-9.243-178.194-8.907-267.879.958-19.416 2.136-22 2.606-22 4 0 3.047 28.803 22.575 45.92 31.132 24.41 12.203 55.93 20.577 91.08 24.197 9.583.987 38.763.534 49.234-.765m44.016-213.215 13.75-.595v-5.189c0-6.655-1.78-16.473-3.461-19.094-.72-1.121-1.325-4.271-1.346-7-.12-15.66-3.816-19.012-13.27-12.037-12.81 9.45-31.112 18.348-34.267 16.66-2.474-1.325-2.87-1.143-8.873 4.053-7.84 6.788-12.82 10.555-19.521 14.765l-5.239 3.292-9.261-5.84c-5.094-3.212-12.275-8.43-15.958-11.597-6.909-5.94-8.33-6.646-9.07-4.507-1.048 3.026-23.955-8.645-35.059-17.86-8.618-7.154-10.82-5.007-12.42 12.11-.309 3.3-1.127 6.9-1.818 8-1.162 1.848-4.437 18.555-4.437 22.634 0 1.53 1.097 1.825 7.75 2.087 15.365.604 139.066.7 152.5.118m-260.37-1.244c2.214-1.402 19.746-74.301 18.592-77.308-.309-.804-3.68-4.028-7.494-7.165-9.021-7.422-18.407-19.544-25.483-32.913-6.306-11.914-5.947-11.793-11.517-3.897-2.206 3.128-5.398 7.488-7.092 9.688-18.949 24.608-52.433 104.316-46.716 111.204 1.266 1.527 77.328 1.9 79.71.391m455.766-.616c4.376-11.402-30.967-90.691-52.674-118.172-7.991-10.116-7.85-10.116-12.701-.057-5.372 11.14-14.09 22.575-24.723 32.427l-8.825 8.176.653 4.824c.36 2.652 4.368 20.123 8.908 38.823l8.255 34 6.98.573c17.408 1.43 73.523.98 74.127-.594m-382.91-1.729c.54-.687 1.73-6.425 2.643-12.75.914-6.325 2.625-16.96 3.803-23.634l2.14-12.133-11.043-10.867c-6.074-5.976-12.762-13.493-14.861-16.703-3.785-5.79-6.418-6.17-6.418-.927 0 .745-1.172 5.946-2.604 11.559-1.431 5.613-2.964 11.78-3.406 13.705-.44 1.925-2.422 10.475-4.403 19-8.604 37.042-9.813 32.865 9.622 33.252 8.41.167 17.148.404 19.419.526 2.362.127 4.547-.312 5.108-1.028m268.607-.405c3.684-.706 3.83.14-8.912-51.776-7.426-30.255-7.81-30.96-12.731-23.43-3.51 5.37-13.438 16.097-21.492 23.222-2.74 2.424-4.126 4.402-3.832 5.468.533 1.938 2.779 16.482 5.197 33.671.93 6.6 2.172 12.607 2.763 13.349 1.062 1.335 31.45.942 39.007-.504m-441.54-25.095c.575-1.512 2.034-5.9 3.243-9.75 6.317-20.114 17.042-42.397 29.134-60.526l7.906-11.854-3.578-7.105c-5.014-9.956-4.587-9.967-26.008.693-22.02 10.958-56.74 37.97-64.908 50.498-2.29 3.512-2.251 3.557 8.662 10.07 11.03 6.582 25.556 16.886 35.15 24.933 7.83 6.568 8.935 6.89 10.399 3.041m585.898-3c3.93-3.162 9.9-7.947 13.267-10.633 6.326-5.044 18.197-13.08 26.36-17.842 12.572-7.335-33.969-46.961-73.646-62.706-9.097-3.61-8.834-3.692-12.704 3.975-3.954 7.832-4.068 7.332 4.56 20.013 11.507 16.91 27.464 52.093 31.836 70.193.938 3.884 2.245 3.504 10.327-3m-288.514-3.065c15.072-11.978 25.86-27.695 32.253-46.99 2.066-6.238 4.107-6.595 6.808-1.192 2.443 4.886 2.307 15.411-.298 23.145-6.905 20.498 33.155-13.324 44.734-37.768 6.826-14.41 14.579 6.088 7.893 20.87-1.704 3.769 2.565 1.58 9.286-4.76 24.51-23.121 32.754-55.915 21.294-84.705-2.106-5.289 1.004-4.124 7.564 2.834C664.26 522.919 672 543.355 672 563.16c0 12.798-.24 12.677 8.147 4.09 24.743-25.33 31.797-60.171 18.637-92.052-3.564-8.634-3.29-9.27 2.53-5.86 18.64 10.924 30.757 28.99 39.177 58.412 1.676 5.858 5.38-1.308 9.057-17.526 9.265-40.864-1.172-73.427-31.548-98.43-11.235-9.247 15.43-6.987 44.344 3.759 12.225 4.543 12.733 4.16 8.326-6.29-17.273-40.957-82.442-62.058-126.546-40.973l-4.624 2.21-.674 9c-.806 10.772-3.33 18.417-9.22 27.928-4.335 7-4.372 7.134-3.539 13.072 4.211 30.029-9.909 38.806-37.2 23.122-3.983-2.289-5.034-2.507-7.5-1.557-17.664 6.806-36.844 6.152-57.223-1.948-11.852-4.712-12.38-4.778-17.706-2.24-19.585 9.334-38.645 11.203-57.726 5.662l-8.788-2.552-5.468 3.498c-24.202 15.482-39.65 5.125-35.549-23.834l.963-6.798-4.467-6.66c-5.38-8.02-8.367-17.008-9.126-27.448-.704-9.687-.851-9.857-11.777-13.554-49.122-16.62-102.814 3.09-121.11 44.46-4.438 10.036-4.658 9.991 14.698 3.026 30.05-10.812 51.488-10.898 36.42-.145-30.413 21.702-41.3 71.789-24.286 111.718 2.719 6.38 3.113 6.129 6.267-4 7.378-23.692 21.765-44.063 36.873-52.207 5.912-3.187 6.496-2.347 3.307 4.76-14.222 31.69-6.007 70.87 19.96 95.197l5.871 5.5.615-13.5c1.005-22.06 6.806-36.789 20.382-51.75 8.054-8.877 9.686-8.7 6.517.707-8.822 26.189-.58 57.4 20.937 79.293 10.507 10.69 12.37 11.226 10.433 3-2.383-10.13-1.578-19.253 2.211-25.035l1.664-2.54 5.277 10.67c8.15 16.478 19.124 28.653 35.201 39.054 10.04 6.494 10.232 6.418 7.763-3.06-3.15-12.094 2.553-34.138 6.124-23.672 13.153 38.55 37.807 62.244 52.563 50.518m-338.363-66.458c4.222-3.482 10.376-8.28 13.676-10.663s6.51-4.96 7.132-5.729c.623-.767 10.073-5.887 21-11.375 10.928-5.49 21.1-10.627 22.607-11.417 3.108-1.63 2.824-4.543-.442-4.543-7.645 0-33.078 9.627-56.79 21.498-23.866 11.947-35.902 16.843-50.507 20.541-4.95 1.254-9.357 2.588-9.794 2.965-1.073.925 11.712 17.292 18.3 23.427l5.296 4.931 10.922-11.652c6.008-6.409 14.378-14.501 18.6-17.983m693.799 23.023c13.169-13.678 19.158-22.75 15.02-22.75-7.816 0-34.408-10.455-64.623-25.408-22.437-11.104-47.921-19.995-52.392-18.28-2.837 1.09-1.786 3.726 2.122 5.32 31.153 12.71 55.005 28.814 79.25 53.51 14.412 14.679 13.972 14.516 20.623 7.608M253.15 469.14c.358-.352 1.375-4.197 2.26-8.544 1.334-6.558 3.605-13.01 9.32-26.484.93-2.19-7.42-.604-20.796 3.95-15.606 5.314-14.643 5.932-15.32-9.827-.402-9.382-.405-9.383-9.343-4.782-12.255 6.309-35.22 26.683-35.26 31.284-.076 8.404 62.07 21.35 69.139 14.403m557.058-1.224C825.852 464.5 840 458.23 840 454.716c0-3.168-21.523-23.537-30.58-28.942-12.55-7.487-12.758-7.408-13.718 5.224-1.008 13.255-.476 12.931-13.341 8.113-22.325-8.36-24.063-8.121-19.11 2.633 1.966 4.266 4.331 11.131 5.257 15.256 2.985 13.3 2.452 12.426 8.01 13.137 7.627.976 23.999-.103 33.691-2.22M489.5 424.505c3.85-.804 10.709-2.884 15.242-4.623l8.242-3.162 5.778 2.593c39.248 17.613 92.083-1.998 100.826-37.425l1.621-6.57-2.677-5.66c-2.392-5.055-3.002-5.658-5.727-5.658-9.666 0 16.788-13.303 36.786-18.499 34.956-9.082 72.43-2.472 98.409 17.36 10.112 7.718 8.854 3.892-2.304-7.009-14.453-14.12-30.986-23.646-54.451-31.376-15.703-5.173-16.414-5.75-9.495-7.696 6.11-1.718 6.36-3.474 2.182-15.32-20.636-58.506-75.925-87.625-112.622-59.314-5.847 4.511-6.979 4.509-9.608-.02l-1.798-3.097 3.631-3.631c4.392-4.391 4.186-4.634-6.535-7.726-25.906-7.471-65.508-7.31-91.25.371-7.374 2.2-8.08 3.358-4.25 6.957 3.099 2.911 3.1 4.677.008 8.46l-2.42 2.962-4.294-3.227c-39.212-29.467-93.88-.618-113.777 60.041-3.795 11.57-3.804 11.521 2.517 13.617 7.034 2.333 6.078 3.189-8.077 7.235-14.84 4.241-31.706 12.334-42.457 20.371-7.611 5.69-23 20.224-23 21.722 0 1.507 1.467.826 6-2.787 33.965-27.068 95.656-28.972 133.154-4.11l6.346 4.208-3.263.318c-8.089.79-9.38 13.415-2.751 26.902 12.565 25.567 47.905 40.492 80.014 33.793M427 339.877c-14.525-5.376-20.537-7.243-33.388-10.372-36.658-8.925-11.829-64.93 27.587-62.229 42.257 2.897 52.982 62.614 13.301 74.06-1.1.317-4.475-.34-7.5-1.46M404.068 314c.396-4.527 1.34-7.718 3.114-10.515 4.086-6.443 4.955-6.835 8.827-3.979 14.53 10.72 29.575-9.25 15.38-20.414-15.392-12.108-44.582 5.605-46.205 28.037-.767 10.613 2.966 14.153 14.316 13.575l4-.204zm181.208 25.95c-21.239-10.725-25.32-43.474-7.497-60.146 25.202-23.574 61.888-13.036 70.768 20.327 2.75 10.335 1.63 25.61-1.93 26.32-14.19 2.833-32.254 7.565-41.117 10.772-14.193 5.135-15.19 5.27-20.224 2.727m49.596-19.882c19.18-3.705-3.362-45.519-23.635-43.838-18.68 1.55-14.87 26.639 4.062 26.748 4.267.025 7.634 5.15 7.679 11.69.046 6.587 1.748 7.36 11.894 5.4m-303.07-50.323c4.482-8.167 9.463-15.04 16.448-22.695 6.506-7.129 6.418-7.363-4.108-10.953-23.648-8.067-37.246-6.032-34.113 5.105 8.692 30.896 15.548 39.884 21.772 28.543m369.506 5.467c5.74-6.342 18.45-41.467 15.66-43.277-4.216-2.733-44.968 4.746-44.968 8.253 0 .575 2.556 3.805 5.68 7.178 5.941 6.414 15.96 20.934 18.235 26.43 1.5 3.62 3.034 4.023 5.393 1.416m-326.66-49.387c21.34-13.001 46.685-18.29 63.002-13.146 6.881 2.169 7.44 1.386 3.827-5.356C428.257 182.656 383 155.706 383 172.5v5.5l-8.75-.013c-13.278-.02-26.649-3.267-44.157-10.722-7.093-3.02 6.52 31.492 18.286 46.362 12.292 15.533 17.117 17.774 26.269 12.199m289.672.298c14.161-9.748 29.121-34.875 32.039-53.813.863-5.605.054-5.822-8.363-2.24-9.257 3.939-19.524 6.545-30.646 7.779-13.173 1.461-14.085 1.12-14.921-5.572l-.689-5.513-4.417.605c-18.585 2.548-44.804 22.862-54.738 42.41-2.386 4.695-1.387 5.26 5.5 3.118 16.28-5.068 40.696-.433 60.915 11.563 8.917 5.29 9.895 5.397 15.32 1.663M474.007 204.97c17.04-5.027 58.747-5.088 79.141-.115 5.938 1.448 6.522.341 3.97-7.518-8.112-24.984-38.976-62.902-46.974-57.71-15.744 10.218-32.904 33.224-40.059 53.704-4.556 13.04-4.22 14.041 3.922 11.64"/></g><text xml:space="preserve" style="font-style:normal;font-variant:normal;font-weight:400;font-stretch:normal;font-size:85.3333px;font-family:STHupo;-inkscape-font-specification:STHupo;text-align:center;white-space:pre;shape-inside:url(#a);shape-padding:1.09418;display:inline;fill:#f0b009;fill-opacity:1;stroke-width:1.00157" x="367.915" transform="matrix(.95539 0 0 1.40648 -55.984 -375.458)"><tspan x="221.918" y="833.92">BEARDED DRAGONS</tspan></text><text xml:space="preserve" style="font-style:normal;font-variant:normal;font-weight:400;font-stretch:normal;font-size:85.3333px;font-family:STHupo;-inkscape-font-specification:STHupo;text-align:center;white-space:pre;shape-inside:url(#b);shape-padding:1.09418;display:inline;fill:#071732;fill-opacity:1;stroke-width:1.00157" x="367.915" transform="matrix(.6096 0 0 .7387 124.274 256.664)"><tspan x="517.975" y="833.92">21925</tspan></text></svg>